<?xml version="1.0" standalone="no"?>
<!DOCTYPE svg PUBLIC "-//W3C//DTD SVG 20010904//EN"
 "http://www.w3.org/TR/2001/REC-SVG-20010904/DTD/svg10.dtd">
<svg version="1.0" xmlns="http://www.w3.org/2000/svg"
 width="1000.000000pt" height="250.000000pt" viewBox="0 0 1000.000000 250.000000"
 preserveAspectRatio="xMidYMid meet">

<g transform="translate(0.000000,250.000000) scale(0.100000,-0.100000)"
fill="#000000" stroke="none">
<path d="M0 1250 l0 -1250 5000 0 5000 0 0 1250 0 1250 -5000 0 -5000 0 0
-1250z m4120 408 c211 -650 255 -778 265 -778 6 0 92 252 191 560 l179 560
153 0 c83 0 152 -3 152 -7 0 -4 -97 -295 -216 -648 -119 -352 -232 -686 -251
-743 l-35 -102 -181 2 -180 3 -73 215 c-39 118 -153 455 -252 748 l-180 532
158 0 159 0 111 -342z m2178 220 l-3 -123 -217 -3 -218 -2 0 -625 0 -625 -150
0 -150 0 0 625 0 625 -215 0 -215 0 0 125 0 125 585 0 586 0 -3 -122z"/>
</g>
</svg>
